<svg width="50" height="50" viewBox="0 0 50 50" fill="none" xmlns="http://www.w3.org/2000/svg">
<path fill-rule="evenodd" clip-rule="evenodd" d="M47.6451 35.6064C49.1558 32.3865 50 28.7919 50 25C50 20.6227 48.875 16.5081 46.8984 12.9297C47.5616 16.4632 47.6562 20.6098 47.6562 25C47.6562 26.2955 47.6731 27.5614 47.6895 28.79C47.7221 31.2296 47.7526 33.522 47.6451 35.6064ZM36.3846 47.2633C32.97 49.0129 29.1003 50 25 50C11.1929 50 0 38.8071 0 25C0 11.1929 11.1929 0 25 0C28.4436 0 31.7247 0.696258 34.71 1.95568C34.5993 1.95398 34.4876 1.95312 34.375 1.95312C21.8623 1.95312 2.34375 12.4873 2.34375 25C2.34375 37.402 23.821 47.0929 36.3846 47.2633Z" fill="#42CEB5"/>
<path fill-rule="evenodd" clip-rule="evenodd" d="M10.5071 18.2119C9.54028 20.2726 9 22.5732 9 25C9 27.8015 9.72 30.4348 10.985 32.725C10.5606 30.4635 10.5 27.8097 10.5 25C10.5 24.1709 10.4892 23.3607 10.4787 22.5744C10.4579 21.0131 10.4383 19.5459 10.5071 18.2119ZM17.7139 10.7515C19.8992 9.63175 22.3758 9 25 9C33.8366 9 41 16.1634 41 25C41 33.8366 33.8366 41 25 41C22.7961 41 20.6962 40.5544 18.7856 39.7484C18.8565 39.7495 18.9279 39.75 19 39.75C27.0081 39.75 39.5 33.0081 39.5 25C39.5 17.0627 25.7545 10.8606 17.7139 10.7515Z" fill="#42CEB5"/>
<path d="M18 17H20.808L29.28 29.864V17H31.32V32.576H28.512L20.04 19.496V32.576H18V17Z" fill="#E7E7E7"/>
</svg>
